<svg xmlns="http://www.w3.org/2000/svg" width="23.925" height="33.931" viewBox="0 0 23.925 33.931">
  <g id="dress" transform="translate(-18.875)">
    <path id="Path_4" data-name="Path 4" d="M35.294,12.4V10.781a3.65,3.65,0,0,0,3.281-3.627V.463A.464.464,0,0,0,38.11,0H35.94a.464.464,0,0,0-.464.464v3.1a6.829,6.829,0,0,0-4.59,3.162A6.829,6.829,0,0,0,26.3,3.56V.463A.464.464,0,0,0,25.834,0h-2.17A.464.464,0,0,0,23.2.464V7.155a3.648,3.648,0,0,0,3.181,3.612V12.4c-5.157,5.384-7.506,14.689-7.506,21.064a.464.464,0,0,0,.464.464h23a.464.464,0,0,0,.464-.464C42.8,27.093,40.451,17.788,35.294,12.4Zm-7.985-1.6h7.057v1.325H27.309Zm9.1-7.347V.928h1.242V3.446h-.928C36.616,3.444,36.51,3.446,36.4,3.453ZM24.128.928H25.37V3.453q-.161-.008-.314-.008h-.928Zm0,6.228V4.372h.928c.122,0,.242.006.363.014s.234.019.359.034h0a5.9,5.9,0,0,1,4.683,3.492.464.464,0,0,0,.85,0A5.9,5.9,0,0,1,35.995,4.42h0c.125-.016.244-.027.359-.034s.241-.014.362-.014h.928V7.156a2.72,2.72,0,0,1-2.717,2.717H26.844a2.72,2.72,0,0,1-2.716-2.718ZM19.807,33c.116-6.355,2.6-15.1,7.235-19.949h7.59C39.271,17.906,41.752,26.649,41.867,33Z" transform="translate(0 0)"/>
    <path id="Path_5" data-name="Path 5" d="M73.062,55.853a.464.464,0,0,0-.053.654,20.473,20.473,0,0,1,2.732,4.3.464.464,0,1,0,.835-.406,21.415,21.415,0,0,0-2.86-4.49A.464.464,0,0,0,73.062,55.853Z" transform="translate(-39.702 -40.966)"/>
  </g>
</svg>
