<svg xmlns="http://www.w3.org/2000/svg" width="37.129" height="34.1" viewBox="0 0 37.129 34.1">
  <path id="food" d="M35.545,17.427H34.256A15.567,15.567,0,0,0,32.832,11.8a.543.543,0,1,0-.985.457,14.49,14.49,0,0,1,1.321,5.172H8.289a.543.543,0,1,0,0,1.086H35.545a.5.5,0,0,1,.5.5v.663a.5.5,0,0,1-.5.5H1.585a.5.5,0,0,1-.5-.5v-.663a.5.5,0,0,1,.5-.5H5.757a.543.543,0,1,0,0-1.086h-1.8A14.635,14.635,0,0,1,17.588,3.809h.006q.222-.014.439-.022l.086,0,.154,0c.1,0,.195,0,.293,0,.13,0,.259,0,.389.006l.115,0c.1,0,.2.008.3.014l.158.009a14.647,14.647,0,0,1,11.114,6.33.543.543,0,0,0,.9-.615A15.734,15.734,0,0,0,20.792,2.849a2.644,2.644,0,0,0,.423-1.434c0-.3-.132-.839-1.014-1.164a5.444,5.444,0,0,0-3.272,0c-.882.325-1.014.869-1.014,1.164a2.648,2.648,0,0,0,.421,1.431A15.726,15.726,0,0,0,2.874,17.426H1.585A1.587,1.587,0,0,0,0,19.011v.663a1.586,1.586,0,0,0,1.584,1.585H7.436a6.73,6.73,0,0,0-.834.673l-.011.01a.492.492,0,0,0-.047.05L3.965,25.124a1.5,1.5,0,0,0-2.044.424l-1.014,1.5a1.5,1.5,0,0,0,.4,2.083L8.245,33.84a1.49,1.49,0,0,0,.84.26,1.524,1.524,0,0,0,.285-.027,1.489,1.489,0,0,0,.959-.632l1.014-1.5a1.5,1.5,0,0,0-.4-2.083l-.04-.027a3.511,3.511,0,0,1,1.827-1.1,11.936,11.936,0,0,1,4.391.073,10.375,10.375,0,0,0,4.427-.239l2-.553A10.3,10.3,0,0,0,27.2,26.172l.024-.02,3.434-3.041a1.676,1.676,0,0,0,.511-1.852h4.381a1.586,1.586,0,0,0,1.584-1.584v-.663a1.586,1.586,0,0,0-1.584-1.584ZM18.565,1.087a2.544,2.544,0,0,1,1.563.352,1.564,1.564,0,0,1-.692,1.276L19.119,2.7l-.106,0c-.152,0-.3-.007-.448-.007-.1,0-.21,0-.317,0l-.155,0-.186.007-.213.01A1.563,1.563,0,0,1,17,1.439a2.544,2.544,0,0,1,1.563-.352Zm3.9,20.434a1.792,1.792,0,0,0-.144-.262h5.21l-2.253,1.491-3.211.929-.109,0a1.848,1.848,0,0,0,.506-2.16Zm-5.89-.262-.784.163-.606-.163ZM10.445,31.336l-1.014,1.5a.414.414,0,0,1-.575.11L1.916,28.227a.414.414,0,0,1-.11-.574l1.014-1.5a.41.41,0,0,1,.265-.174.415.415,0,0,1,.079-.008.41.41,0,0,1,.232.072l.375.254h0l6.564,4.459a.414.414,0,0,1,.11.575Zm19.542-9.083a.476.476,0,0,0-.038.03l-3.437,3.045a9.217,9.217,0,0,1-3.25,1.64l-2,.553a9.273,9.273,0,0,1-3.96.214,12.932,12.932,0,0,0-4.814-.06A4.614,4.614,0,0,0,10,29.222L4.869,25.735l2.492-3.026a5.113,5.113,0,0,1,3.282-1.45h.022a4.094,4.094,0,0,1,1.128.21l.239.066,3.6.97a.543.543,0,0,0,.252.007l4.71-.982a.81.81,0,0,1,.616.12.729.729,0,0,1,.259.309.76.76,0,0,1-.352.982l-1.607.851a.543.543,0,0,0,.266,1.023l2.384-.052a.548.548,0,0,0,.139-.021l3.359-.972A.544.544,0,0,0,25.8,23.7l3.389-2.243c.284-.176.663-.32.864-.023a.647.647,0,0,1-.07.818Zm0,0" transform="translate(0 0)"/>
</svg>
