<svg id="tshirt" xmlns="http://www.w3.org/2000/svg" width="34.022" height="37.868" viewBox="0 0 34.022 37.868">
  <path id="Path_1" data-name="Path 1" d="M59.954,15.886,55.292,5.68a3.818,3.818,0,0,0-2-2.055.754.754,0,0,0-.082-.035l-3.606-1.3V2.248a.74.74,0,0,0-.263-.573L47.564.173a.734.734,0,0,0-.869-.06c-.021.008-.042.017-.062.027A8.127,8.127,0,0,1,43.01.986,8.127,8.127,0,0,1,39.387.14c-.02-.01-.041-.019-.062-.027a.734.734,0,0,0-.869.06l-1.781,1.5a.74.74,0,0,0-.263.573v.046l-3.606,1.3a.739.739,0,0,0-.082.035,3.818,3.818,0,0,0-2,2.055L26.066,15.886a.74.74,0,0,0,.281.934L31.916,20.3V35.648a.74.74,0,0,0,.617.729l8.793,1.479a.74.74,0,0,0,.439-.061l1.244-.59,1.244.59a.739.739,0,0,0,.439.061l8.793-1.479a.74.74,0,0,0,.617-.729V20.3l5.569-3.481a.74.74,0,0,0,.281-.935ZM46.473,6.756l.656,1.774L44.353,9.762,47.4,1.969l.725.611L48.1,5.2l-1.265.642a.739.739,0,0,0-.359.916Zm-.7-4.693L43.01,9.136,40.244,2.063a9.714,9.714,0,0,0,2.766.4A9.716,9.716,0,0,0,45.776,2.063Zm-7.156-.093,3.047,7.792L38.89,8.53l.656-1.774a.74.74,0,0,0-.359-.916L37.922,5.2l-.028-2.617ZM54.1,18.557V13.974a.74.74,0,1,0-1.479,0V35.022l-7.947,1.337-.928-.44V27.105a.74.74,0,1,0-1.479,0v8.814l-.928.44L33.4,35.022V13.974a.74.74,0,1,0-1.479,0v4.583L27.681,15.91l4.392-9.615a2.352,2.352,0,0,1,1.276-1.329l3.08-1.106.019,1.8a.74.74,0,0,0,.4.652l1.078.547-.668,1.807a.74.74,0,0,0,.394.933l4.614,2.047v8.8a.74.74,0,1,0,1.479,0v-8.8L48.364,9.6a.74.74,0,0,0,.394-.933l-.668-1.807,1.078-.547a.74.74,0,0,0,.4-.652l.019-1.8,3.08,1.106a2.352,2.352,0,0,1,1.276,1.329l4.392,9.615Z" transform="translate(-25.999 0.001)"/>
  <path id="Path_2" data-name="Path 2" d="M291.179,178.961h-4.437a.74.74,0,1,0,0,1.479h4.437a.74.74,0,1,0,0-1.479Z" transform="translate(-266.772 -165.725)"/>
  <path id="Path_3" data-name="Path 3" d="M246.737,311.5h0a.74.74,0,1,0,.74.74A.739.739,0,0,0,246.736,311.5Z" transform="translate(-229.726 -288.461)"/>
</svg>
